name C:/MyDriveSym/Projects/mobilecap/Data\Session20210823_0001\mocap\ForceDataProcessed\DJ2_forces.mot
datacolumns 28
datarows 16
range 1.75450000 1.76200000
endheader 
time	R_ground_force_vx	R_ground_force_vy	R_ground_force_vz	R_ground_force_px	R_ground_force_py	R_ground_force_pz	R_ground_torque_x	R_ground_torque_y	R_ground_torque_z	L_ground_force_vx	L_ground_force_vy	L_ground_force_vz	L_ground_force_px	L_ground_force_py	L_ground_force_pz	L_ground_torque_x	L_ground_torque_y	L_ground_torque_z	3_ground_force_vx	3_ground_force_vy	3_ground_force_vz	3_ground_force_px	3_ground_force_py	3_ground_force_pz	3_ground_torque_x	3_ground_torque_y	3_ground_torque_z	
          1.75450000	        -34.01250800	        283.18987100	        -40.56010300	         -0.10074400	          0.00600000	         -0.36835600	          0.00000000	         -0.51432800	          0.00000000	        -65.49132600	        374.42841700	         35.74513400	         -0.08467300	          0.00600000	         -0.84982000	          0.00000000	          2.23598700	          0.00000000	          0.00000000	          0.00000000	          0.00000000	          0.00000000	          0.00000000	          0.00000000	          0.00000000	          0.00000000	          0.00000000	
          1.75500000	        -32.31775300	        277.38837800	        -39.26179500	         -0.10059800	          0.00600000	         -0.36826200	          0.00000000	         -0.52428800	          0.00000000	        -63.36900200	        368.89272200	         34.97881900	         -0.08452300	          0.00600000	         -0.84987400	          0.00000000	          2.22989400	          0.00000000	          0.00000000	          0.00000000	          0.00000000	          0.00000000	          0.00000000	          0.00000000	          0.00000000	          0.00000000	          0.00000000	
          1.75550000	        -30.62385100	        271.51357200	        -37.96014900	         -0.10044800	          0.00600000	         -0.36816800	          0.00000000	         -0.53420300	          0.00000000	        -61.21509500	        363.25938600	         34.20801100	         -0.08437100	          0.00600000	         -0.84993000	          0.00000000	          2.22396900	          0.00000000	          0.00000000	          0.00000000	          0.00000000	          0.00000000	          0.00000000	          0.00000000	          0.00000000	          0.00000000	          0.00000000	
          1.75600000	        -28.93294600	        265.56816700	        -36.65645100	         -0.10029400	          0.00600000	         -0.36807500	          0.00000000	         -0.54396100	          0.00000000	        -59.03226000	        357.52933200	         33.43268400	         -0.08421800	          0.00600000	         -0.84998700	          0.00000000	          2.21815400	          0.00000000	          0.00000000	          0.00000000	          0.00000000	          0.00000000	          0.00000000	          0.00000000	          0.00000000	          0.00000000	          0.00000000	
          1.75650000	        -27.24717500	        259.55511200	        -35.35202800	         -0.10013600	          0.00600000	         -0.36798200	          0.00000000	         -0.55345400	          0.00000000	        -56.82327100	        351.70373200	         32.65283700	         -0.08406300	          0.00600000	         -0.85004600	          0.00000000	          2.21238700	          0.00000000	          0.00000000	          0.00000000	          0.00000000	          0.00000000	          0.00000000	          0.00000000	          0.00000000	          0.00000000	          0.00000000	
          1.75700000	        -25.56866700	        253.47761400	        -34.04825900	         -0.09997500	          0.00600000	         -0.36789000	          0.00000000	         -0.56258100	          0.00000000	        -54.59100700	        345.78403000	         31.86849700	         -0.08390500	          0.00600000	         -0.85010600	          0.00000000	          2.20659700	          0.00000000	          0.00000000	          0.00000000	          0.00000000	          0.00000000	          0.00000000	          0.00000000	          0.00000000	          0.00000000	          0.00000000	
          1.75750000	        -23.89954300	        247.33918200	        -32.74657000	         -0.09980900	          0.00600000	         -0.36779900	          0.00000000	         -0.57124800	          0.00000000	        -52.33844200	        339.77195300	         31.07971500	         -0.08374400	          0.00600000	         -0.85016900	          0.00000000	          2.20071000	          0.00000000	          0.00000000	          0.00000000	          0.00000000	          0.00000000	          0.00000000	          0.00000000	          0.00000000	          0.00000000	          0.00000000	
          1.75800000	        -22.24192400	        241.14363100	        -31.44842600	         -0.09963900	          0.00600000	         -0.36770900	          0.00000000	         -0.57936400	          0.00000000	        -50.06863000	        333.66951100	         30.28655900	         -0.08358000	          0.00600000	         -0.85023300	          0.00000000	          2.19464700	          0.00000000	          0.00000000	          0.00000000	          0.00000000	          0.00000000	          0.00000000	          0.00000000	          0.00000000	          0.00000000	          0.00000000	
          1.75850000	        -20.59794400	        234.89506900	        -30.15531900	         -0.09946500	          0.00600000	         -0.36762000	          0.00000000	         -0.58684600	          0.00000000	        -47.78470500	        327.47901400	         29.48909800	         -0.08341200	          0.00600000	         -0.85029900	          0.00000000	          2.18833500	          0.00000000	          0.00000000	          0.00000000	          0.00000000	          0.00000000	          0.00000000	          0.00000000	          0.00000000	          0.00000000	          0.00000000	
          1.75900000	        -18.96976700	        228.59789800	        -28.86876400	         -0.09928600	          0.00600000	         -0.36753200	          0.00000000	         -0.59361300	          0.00000000	        -45.48986500	        321.20309100	         28.68738800	         -0.08324100	          0.00600000	         -0.85036600	          0.00000000	          2.18170600	          0.00000000	          0.00000000	          0.00000000	          0.00000000	          0.00000000	          0.00000000	          0.00000000	          0.00000000	          0.00000000	          0.00000000	
          1.75950000	        -17.35958600	        222.25681700	        -27.59030000	         -0.09910200	          0.00600000	         -0.36744500	          0.00000000	         -0.59959100	          0.00000000	        -43.18737200	        314.84469900	         27.88147700	         -0.08306400	          0.00600000	         -0.85043600	          0.00000000	          2.17469500	          0.00000000	          0.00000000	          0.00000000	          0.00000000	          0.00000000	          0.00000000	          0.00000000	          0.00000000	          0.00000000	          0.00000000	
          1.76000000	        -15.76962900	        215.87683600	        -26.32148300	         -0.09891400	          0.00600000	         -0.36736000	          0.00000000	         -0.60471600	          0.00000000	        -40.88054400	        308.40709100	         27.07141300	         -0.08288400	          0.00600000	         -0.85050700	          0.00000000	          2.16722700	          0.00000000	          0.00000000	          0.00000000	          0.00000000	          0.00000000	          0.00000000	          0.00000000	          0.00000000	          0.00000000	          0.00000000	
          1.76050000	        -14.20214500	        209.46327800	        -25.06387800	         -0.09872100	          0.00600000	         -0.36727700	          0.00000000	         -0.60893600	          0.00000000	        -38.57274300	        301.89374600	         26.25726200	         -0.08269800	          0.00600000	         -0.85058100	          0.00000000	          2.15922400	          0.00000000	          0.00000000	          0.00000000	          0.00000000	          0.00000000	          0.00000000	          0.00000000	          0.00000000	          0.00000000	          0.00000000	
          1.76100000	        -12.65939300	        203.02176200	        -23.81905400	         -0.09852200	          0.00600000	         -0.36719600	          0.00000000	         -0.61221100	          0.00000000	        -36.26736700	        295.30833300	         25.43913000	         -0.08250600	          0.00600000	         -0.85065700	          0.00000000	          2.15060200	          0.00000000	          0.00000000	          0.00000000	          0.00000000	          0.00000000	          0.00000000	          0.00000000	          0.00000000	          0.00000000	          0.00000000	
          1.76150000	        -11.14364000	        196.55817000	        -22.58858100	         -0.09831800	          0.00600000	         -0.36711700	          0.00000000	         -0.61450700	          0.00000000	        -33.96784100	        288.65471300	         24.61718400	         -0.08230800	          0.00600000	         -0.85073400	          0.00000000	          2.14127300	          0.00000000	          0.00000000	          0.00000000	          0.00000000	          0.00000000	          0.00000000	          0.00000000	          0.00000000	          0.00000000	          0.00000000	
          1.76200000	         -9.65716400	        190.07862500	        -21.37402600	         -0.09810800	          0.00600000	         -0.36704100	          0.00000000	         -0.61580400	          0.00000000	        -31.67762400	        281.93693500	         23.79166100	         -0.08210400	          0.00600000	         -0.85081400	          0.00000000	          2.13114800	          0.00000000	          0.00000000	          0.00000000	          0.00000000	          0.00000000	          0.00000000	          0.00000000	          0.00000000	          0.00000000	          0.00000000	
